<?xml version="1.0" standalone="no"?>
<!DOCTYPE svg PUBLIC "-//W3C//DTD SVG 20010904//EN"
 "http://www.w3.org/TR/2001/REC-SVG-20010904/DTD/svg10.dtd">
<svg version="1.0" xmlns="http://www.w3.org/2000/svg"
 width="240.000000pt" height="314.000000pt" viewBox="0 0 240.000000 314.000000"
 preserveAspectRatio="xMidYMid meet">
<metadata>
Created by potrace 1.15, written by Peter Selinger 2001-2017
</metadata>
<g transform="translate(0.000000,314.000000) scale(0.100000,-0.100000)"
fill="#000000" stroke="none">
<path d="M403 1969 c-21 -13 -37 -34 -43 -57 -7 -24 -10 -153 -8 -369 l3 -331
24 -26 c18 -19 35 -26 63 -26 l38 0 0 154 0 155 -44 3 -45 3 146 135 c81 74
168 155 195 178 l48 44 70 -68 c66 -63 70 -66 70 -41 0 25 3 27 45 27 l45 0 0
-67 0 -67 78 -73 77 -72 -47 -1 -48 0 0 -155 0 -155 44 0 c36 0 48 5 65 26 20
26 21 38 21 380 l0 354 -29 32 -29 33 -354 3 c-344 2 -354 2 -385 -19z"/>
</g>
</svg>
