<?xml version="1.0" standalone="no"?>
<!DOCTYPE svg PUBLIC "-//W3C//DTD SVG 20010904//EN"
 "http://www.w3.org/TR/2001/REC-SVG-20010904/DTD/svg10.dtd">
<svg version="1.0" xmlns="http://www.w3.org/2000/svg"
 width="720.000000pt" height="1040.000000pt" viewBox="0 0 720.000000 1040.000000"
 preserveAspectRatio="xMidYMid meet">

<g transform="translate(0.000000,1040.000000) scale(0.100000,-0.100000)"
fill="#000000" stroke="none">
<path d="M0 5200 l0 -5200 3600 0 3600 0 0 5200 0 5200 -3600 0 -3600 0 0
-5200z m3490 2136 l0 -284 -42 -25 c-51 -29 -93 -53 -185 -103 -37 -21 -90
-50 -116 -66 -26 -15 -50 -28 -53 -28 -2 0 -22 -11 -44 -25 -22 -14 -42 -25
-45 -25 -3 0 -4 129 -3 286 l3 286 50 28 c49 26 186 103 235 131 14 8 27 16
30 19 5 5 162 89 168 90 1 0 2 -128 2 -284z m-1425 -691 c66 -39 136 -79 156
-90 19 -11 74 -42 122 -70 l87 -50 0 -277 0 -276 -32 15 c-18 9 -36 21 -39 26
-3 5 -9 8 -13 8 -3 -1 -16 5 -29 12 -26 16 -228 134 -272 159 -16 10 -49 27
-72 39 l-43 23 0 285 c0 157 4 281 8 276 4 -6 61 -42 127 -80z m2985 -194 l0
-280 -91 -53 c-180 -105 -204 -119 -231 -131 -16 -6 -28 -14 -28 -18 0 -4 -21
-16 -47 -28 -27 -12 -59 -29 -73 -36 l-25 -14 -3 272 -2 272 22 17 c13 10 26
18 30 18 3 0 53 27 110 61 57 34 128 75 158 92 30 17 82 47 115 68 33 21 61
38 63 38 1 1 2 -125 2 -278z m-2380 -148 c47 -27 142 -83 213 -123 l127 -74 0
-271 0 -271 75 -42 c41 -23 80 -42 85 -42 6 0 10 -4 10 -10 0 -5 4 -10 9 -10
5 0 26 -11 48 -25 21 -14 40 -24 43 -23 3 1 24 -11 47 -25 24 -15 45 -27 47
-27 3 0 25 -13 49 -30 25 -16 50 -30 56 -30 8 0 11 -85 11 -290 0 -187 -4
-290 -10 -290 -5 0 -10 5 -10 10 0 6 -4 10 -9 10 -5 0 -47 22 -93 48 -46 26
-90 51 -98 55 -16 8 -45 26 -70 42 -8 5 -17 10 -20 10 -3 0 -36 19 -75 41 -38
23 -78 44 -87 47 -16 6 -18 31 -20 293 l-3 286 -60 34 c-33 19 -67 37 -75 40
-8 4 -22 13 -30 20 -8 6 -42 27 -75 45 -33 18 -71 39 -85 46 -14 8 -52 30 -85
48 l-60 33 -3 282 -2 282 32 -20 c18 -10 71 -41 118 -69z m1800 -187 l0 -275
-27 -19 c-16 -10 -35 -22 -43 -26 -8 -3 -33 -17 -55 -29 -22 -13 -57 -33 -77
-45 -39 -22 -101 -59 -133 -79 -47 -29 -129 -73 -146 -78 -18 -6 -19 4 -19
267 0 249 2 274 18 284 9 6 42 25 72 41 30 17 89 51 130 75 41 25 102 60 135
78 33 18 76 43 95 56 19 13 38 23 43 23 4 1 7 -122 7 -273z m293 -1023 c122
-70 237 -134 255 -143 l33 -16 -42 -19 c-23 -11 -47 -24 -53 -30 -6 -6 -27
-19 -46 -29 -19 -9 -44 -23 -55 -29 -11 -7 -48 -29 -83 -50 -35 -20 -65 -37
-67 -37 -3 0 -34 -18 -70 -40 -36 -22 -68 -40 -71 -40 -12 0 -79 35 -92 47 -7
7 -20 13 -28 13 -8 0 -14 3 -14 8 0 4 -9 12 -20 17 -85 44 -166 89 -168 96 -2
5 -9 9 -16 9 -7 0 -18 6 -24 13 -7 6 -16 12 -20 12 -14 1 -112 60 -112 68 0 4
7 10 16 14 9 3 56 29 103 57 47 28 100 58 116 66 17 8 36 21 43 28 7 6 20 12
28 12 8 0 14 5 14 10 0 6 6 10 13 10 6 0 39 18 72 39 33 22 61 40 63 40 2 1
103 -56 225 -126z m-2281 87 c26 -16 50 -30 52 -30 2 0 52 -28 112 -63 60 -35
116 -66 124 -70 8 -4 43 -25 78 -46 59 -35 62 -39 47 -55 -9 -9 -23 -16 -31
-16 -8 0 -14 -3 -14 -7 0 -5 -20 -17 -45 -28 -25 -11 -45 -22 -45 -25 0 -4
-21 -17 -46 -31 -84 -44 -119 -64 -174 -100 -30 -20 -62 -39 -70 -42 -8 -4
-22 -12 -30 -18 -13 -9 -47 7 -170 79 -85 49 -186 108 -225 130 -119 69 -117
61 -30 112 42 25 103 60 135 78 32 18 107 61 167 97 59 35 110 65 112 65 2 0
26 -13 53 -30z m544 -306 c16 -8 52 -29 79 -45 28 -17 62 -35 78 -42 15 -6 27
-15 27 -19 0 -4 6 -8 14 -8 8 0 21 -6 28 -13 7 -7 29 -21 48 -30 19 -10 58
-31 85 -48 28 -16 60 -35 73 -41 l22 -11 0 -284 c0 -155 -3 -283 -7 -283 -5 0
-44 22 -88 48 -44 26 -87 51 -95 55 -8 4 -28 16 -45 27 -32 20 -39 24 -150 85
-38 20 -75 43 -81 49 -8 7 -13 100 -16 294 -3 155 -4 282 -3 282 1 0 15 -7 31
-16z"/>
</g>
</svg>
