<?xml version="1.0" standalone="no"?>
<!DOCTYPE svg PUBLIC "-//W3C//DTD SVG 20010904//EN"
 "http://www.w3.org/TR/2001/REC-SVG-20010904/DTD/svg10.dtd">
<svg version="1.0" xmlns="http://www.w3.org/2000/svg"
 width="683.000000pt" height="683.000000pt" viewBox="0 0 683.000000 683.000000"
 preserveAspectRatio="xMidYMid meet">

<g transform="translate(0.000000,683.000000) scale(0.100000,-0.100000)"
fill="#000000" stroke="none">
<path d="M2 5494 l3 -1336 128 -70 c70 -39 126 -73 123 -75 -4 -4 -34 11 -191
99 -27 15 -53 28 -57 28 -5 0 -8 -931 -8 -2070 l0 -2070 3415 0 3415 0 0 2234
0 2234 -22 16 -23 17 23 -11 22 -11 0 176 c0 96 -4 175 -8 175 -5 0 -32 -7
-61 -16 -29 -8 -60 -13 -69 -11 -9 2 18 11 61 21 l77 18 0 135 c0 129 -1 134
-19 121 -10 -7 -80 -71 -155 -143 -76 -71 -143 -131 -149 -133 -7 -2 64 70
156 160 l168 163 -1 361 0 362 -22 16 -23 17 23 -6 22 -6 0 470 0 471 -24 0
c-21 0 -25 -6 -30 -47 -4 -27 -11 -70 -16 -98 -11 -61 -34 -197 -55 -325 -9
-52 -25 -147 -36 -210 -12 -63 -22 -128 -23 -145 -1 -16 -5 -37 -8 -45 -3 -8
-14 -62 -23 -120 -10 -58 -28 -165 -42 -238 -14 -73 -22 -136 -19 -139 3 -3 1
-14 -4 -23 -5 -10 -18 -71 -29 -136 -71 -429 -77 -461 -86 -453 -2 2 3 42 10
89 8 47 19 114 25 150 6 36 17 105 26 155 9 49 20 121 24 160 5 38 22 149 39
245 16 96 35 205 41 242 6 37 10 77 9 90 -2 13 2 32 8 43 6 11 14 54 18 95 4
41 20 145 36 230 27 151 79 457 79 473 0 4 -295 7 -655 7 l-654 0 -53 -31
c-29 -17 -54 -35 -56 -40 -2 -5 -8 -9 -14 -9 -5 0 -42 -19 -81 -43 -40 -24
-121 -72 -180 -108 -59 -35 -136 -81 -170 -101 -85 -52 -138 -80 -142 -76 -2
2 42 31 98 64 170 103 432 266 437 273 3 3 27 17 53 31 27 14 51 28 53 33 3 4
-39 7 -93 7 -111 0 -112 0 -216 -93 -36 -31 -85 -74 -110 -95 -58 -47 -153
-129 -192 -164 -16 -15 -32 -25 -34 -22 -3 3 10 19 29 36 192 166 330 287 355
310 l30 28 -2578 0 -2577 0 2 -1336z m4478 1214 c10 -40 31 -113 45 -162 14
-48 24 -90 21 -93 -2 -3 -10 15 -16 38 -6 24 -26 94 -45 154 -18 61 -36 124
-39 140 -12 58 14 -1 34 -77z m1594 -97 c15 -14 32 -37 37 -50 13 -32 -4 -88
-37 -123 -23 -23 -36 -28 -78 -28 l-50 0 79 -54 c126 -86 127 -89 10 -29 -104
53 -298 173 -292 180 2 2 31 -11 65 -27 34 -17 69 -30 77 -30 19 0 19 19 0 26
-19 8 -20 66 -1 102 15 28 43 56 67 65 29 11 95 -6 123 -32z m-1899 -18 c11
-7 15 -13 10 -13 -13 0 -85 48 -85 57 0 5 25 -9 75 -44z m547 -155 c-8 -8 -8
-15 -1 -24 8 -10 3 -17 -19 -28 -26 -14 -30 -21 -34 -72 -3 -30 -10 -59 -17
-63 -6 -4 -10 -14 -8 -22 2 -8 2 -11 0 -6 -3 4 -27 7 -55 7 -34 0 -59 6 -79
21 -25 18 -29 27 -29 69 0 27 6 54 13 60 59 49 56 48 113 28 l54 -19 32 30
c31 29 56 45 30 19z m1860 -47 c43 -38 53 -73 34 -121 -25 -62 -45 -79 -106
-86 -50 -5 -58 -3 -92 23 -76 59 -67 153 18 196 55 28 105 24 146 -12z m-1867
-171 c12 -19 -12 -10 -31 11 -19 22 -19 22 3 10 12 -6 25 -16 28 -21z m1530 0
c3 -5 2 -10 -4 -10 -5 0 -13 5 -16 10 -3 6 -2 10 4 10 5 0 13 -4 16 -10z
m-1564 -52 c8 -15 8 -18 0 -14 -6 4 -16 16 -22 28 -8 15 -8 18 0 14 6 -4 16
-16 22 -28z m1691 -15 c35 -21 70 -42 79 -48 9 -5 44 -26 78 -45 33 -19 61
-39 61 -43 0 -5 -17 1 -37 13 -21 13 -94 54 -163 92 -69 39 -127 73 -130 76
-16 16 59 -14 112 -45z m-1545 -33 c28 -25 64 -56 81 -70 17 -14 31 -29 32
-33 0 -10 -71 48 -150 123 -65 61 -35 45 37 -20z m-89 -50 c17 -27 28 -50 24
-50 -4 0 -20 23 -35 50 -36 65 -29 65 11 0z m46 -76 c3 -8 2 -12 -4 -9 -6 3
-10 10 -10 16 0 14 7 11 14 -7z m210 -23 c-3 -3 -15 6 -27 18 l-22 24 27 -19
c14 -10 24 -21 22 -23z m1731 -32 c4 -6 -7 -4 -23 5 -17 9 -34 21 -37 27 -4 6
7 4 23 -5 17 -9 34 -21 37 -27z m-1683 -1 c14 -13 51 -45 83 -73 32 -27 67
-58 79 -69 11 -10 43 -37 70 -60 27 -22 54 -46 60 -51 6 -6 45 -39 86 -74 41
-35 77 -65 79 -67 2 -2 -1 -4 -7 -4 -6 0 -17 6 -24 13 -7 7 -42 37 -78 67 -36
30 -67 57 -70 60 -7 7 -176 155 -215 188 -71 60 -104 92 -96 92 4 0 19 -10 33
-22z m-184 -83 c-3 -3 -9 2 -12 12 -6 14 -5 15 5 6 7 -7 10 -15 7 -18z m32
-50 c0 -5 -5 -3 -10 5 -5 8 -10 20 -10 25 0 6 5 3 10 -5 5 -8 10 -19 10 -25z
m61 -93 c5 -2 9 -8 9 -13 0 -19 -20 2 -40 41 -11 22 -20 43 -20 47 1 4 10 -10
22 -32 11 -22 25 -41 29 -43z m43 -78 c3 -8 2 -12 -4 -9 -6 3 -10 10 -10 16 0
14 7 11 14 -7z m73 -116 c6 -7 13 -22 17 -33 6 -17 4 -17 -18 4 -15 14 -26 28
-26 33 0 12 16 10 27 -4z m513 -37 c0 -4 37 -39 81 -77 107 -91 225 -193 253
-219 6 -5 40 -35 76 -65 36 -30 70 -59 76 -65 6 -5 39 -34 73 -64 34 -30 59
-56 56 -60 -3 -3 -9 -1 -13 4 -11 15 -131 120 -382 334 -85 73 -168 145 -185
160 -16 15 -44 36 -62 46 -17 10 -34 26 -36 36 -4 15 -1 15 29 -3 19 -11 34
-23 34 -27z m-1104 -100 c112 -32 201 -116 245 -230 18 -48 19 -79 19 -469 0
-739 -11 -1565 -22 -1607 -14 -57 -50 -116 -98 -159 l-41 -37 -122 3 -122 3 0
460 0 460 138 3 c75 1 137 6 136 10 -1 4 -33 36 -73 72 -72 66 -321 297 -363
337 -23 22 -23 26 -23 228 l0 205 -125 0 c-69 0 -128 0 -132 0 -5 0 -9 -28
-11 -62 -1 -35 -5 -69 -7 -77 -4 -8 -28 9 -73 51 -275 263 -335 317 -350 318
-12 0 -108 -86 -363 -322 -58 -54 -117 -107 -130 -119 -13 -11 -51 -46 -84
-77 -33 -32 -112 -104 -175 -162 -63 -58 -142 -130 -175 -161 -33 -31 -102
-94 -153 -140 l-92 -84 140 -3 140 -3 0 -464 0 -465 -130 0 -129 0 -40 40
c-22 22 -52 66 -68 98 l-28 57 -3 985 c-1 645 1 1002 8 1033 30 143 123 243
262 282 46 13 180 14 1034 10 539 -3 994 -9 1010 -14z m1836 -540 c36 -33 38
-33 82 -22 83 21 137 -20 128 -98 -6 -51 -29 -76 -78 -86 -39 -7 -72 8 -103
47 -23 29 -23 30 -7 71 l17 42 -28 24 c-68 58 -113 100 -113 107 0 7 21 -10
102 -85z m338 -50 c-8 -5 -35 -11 -60 -15 l-45 -6 40 14 c47 16 89 21 65 7z
m-10 -188 c19 -12 30 -23 25 -23 -13 0 -115 68 -115 76 0 6 19 -5 90 -53z
m-233 -50 c-3 -10 -5 -4 -5 12 0 17 2 24 5 18 2 -7 2 -21 0 -30z m329 -15 c24
-17 44 -33 44 -35 0 -5 -50 25 -81 48 -41 32 -10 21 37 -13z m-3056 -158 c71
-24 155 -65 164 -78 7 -12 -50 -102 -64 -102 -6 0 -33 11 -60 25 -75 38 -154
55 -255 55 -101 0 -180 -17 -261 -57 -30 -14 -56 -24 -58 -22 -14 16 -56 91
-56 99 0 16 123 71 205 92 99 25 293 19 385 -12z m2717 -32 c-3 -8 -6 -5 -6 6
-1 11 2 17 5 13 3 -3 4 -12 1 -19z m-2748 -193 c36 -14 75 -32 85 -40 19 -14
19 -15 0 -50 -33 -63 -46 -69 -91 -47 -95 48 -215 53 -328 13 -33 -12 -64 -22
-69 -24 -5 -1 -23 18 -39 42 -22 32 -28 48 -20 59 11 18 118 60 183 72 78 15
205 4 279 -25z m-3200 -109 c37 -38 34 -90 -7 -127 -56 -50 -125 -29 -157 48
l-15 36 40 40 c37 35 45 39 77 34 21 -4 48 -18 62 -31z m2999 -346 c1 -85 0
-165 -3 -177 -5 -23 -7 -23 -180 -23 l-175 0 0 81 c0 45 5 99 11 120 17 55 65
108 123 135 43 21 64 24 136 22 l85 -3 3 -155z m235 144 c56 -19 121 -81 139
-133 6 -20 12 -74 12 -121 l1 -85 -175 0 -175 0 1 23 c0 12 1 92 2 177 l2 155
73 0 c41 0 94 -7 120 -16z m150 -391 c3 -5 3 -133 -1 -285 l-5 -278 -368 0
-369 0 0 285 0 285 369 0 c204 0 372 -3 374 -7z m-1649 -909 c20 -8 21 -32 2
-53 -11 -12 -15 -57 -18 -188 -3 -168 -3 -172 20 -196 52 -56 -11 -89 -86 -47
-67 38 -72 55 -72 259 0 151 -2 181 -14 181 -19 0 -29 17 -22 35 4 12 25 15
90 15 46 0 91 -3 100 -6z m214 -28 c2 -10 -3 -23 -12 -28 -13 -7 -16 -29 -17
-121 -1 -197 -11 -272 -38 -301 -28 -30 -59 -34 -68 -9 -4 11 3 24 23 39 l29
24 3 179 c4 174 4 180 -17 193 -12 7 -21 21 -21 31 0 16 8 18 57 15 48 -2 58
-6 61 -22z m596 12 c2 -7 18 -67 36 -133 18 -66 39 -135 47 -153 15 -30 14
-37 -17 -122 -25 -70 -37 -90 -51 -90 -24 0 -26 5 -95 240 -45 155 -62 199
-82 217 -15 13 -23 27 -19 37 5 13 23 16 92 16 60 0 87 -4 89 -12z m320 -13
c3 -8 -3 -23 -13 -32 -16 -16 -19 -42 -25 -202 l-7 -185 23 -17 c19 -15 21
-22 12 -36 -9 -14 -27 -19 -90 -21 -43 -1 -89 0 -101 3 -29 7 -30 36 -2 53 20
13 20 20 18 221 -1 114 1 213 5 219 11 19 172 16 180 -3z m617 -12 c11 -12 9
-18 -8 -31 -19 -16 -21 -31 -27 -209 -6 -172 -5 -192 10 -201 9 -5 14 -18 12
-28 -3 -17 -13 -19 -97 -19 -78 0 -96 3 -105 17 -8 14 -6 21 9 32 18 13 20 30
26 203 5 174 4 189 -13 202 -20 15 -23 32 -9 47 16 15 188 5 202 -13z m217 8
c20 -12 11 -45 -13 -49 -11 -2 -34 -18 -52 -34 -46 -44 -68 -33 -58 30 4 26 9
50 12 55 6 10 95 9 111 -2z m614 -56 c12 -58 56 -204 75 -247 15 -36 15 -40
-12 -115 -55 -155 -67 -145 -145 120 -48 165 -67 217 -86 232 -51 44 -21 62
87 55 l73 -5 8 -40z m312 18 c5 -11 0 -23 -12 -33 -18 -13 -20 -34 -27 -199
l-6 -185 23 -17 c19 -15 21 -22 12 -36 -9 -14 -27 -19 -90 -21 -43 -2 -89 0
-101 3 -29 7 -30 36 -2 53 20 13 21 19 18 220 -2 114 0 213 4 220 6 8 36 12
92 12 69 0 84 -3 89 -17z m-1017 -225 c28 -68 54 -133 57 -144 4 -12 15 -29
26 -39 11 -10 20 -26 20 -37 0 -16 -9 -18 -89 -18 -99 0 -98 0 -120 70 -28 93
-22 237 11 277 28 34 45 14 95 -109z m-1173 -34 c13 -5 15 -16 10 -54 -5 -40
-3 -53 16 -78 12 -17 19 -35 16 -41 -8 -12 -103 -15 -130 -5 -23 9 -20 31 5
39 25 8 39 43 39 101 0 45 8 52 44 38z m1760 -40 c13 -5 15 -16 10 -59 -6 -45
-4 -55 15 -74 12 -12 20 -28 18 -34 -4 -13 -88 -22 -124 -12 -29 7 -30 31 -2
40 25 8 39 43 39 101 0 45 8 52 44 38z m-1797 -361 c48 -22 78 -76 78 -143 1
-52 22 -130 35 -130 4 0 14 26 23 58 14 50 14 58 2 68 -24 18 -17 24 30 24 50
0 54 -4 26 -28 -10 -10 -33 -64 -50 -122 -17 -57 -35 -108 -40 -113 -6 -6 -22
17 -41 54 -17 35 -36 69 -42 74 -8 7 -9 6 -4 -2 4 -8 -2 -15 -18 -19 -33 -8
-62 -73 -40 -90 20 -16 7 -24 -38 -24 -42 0 -48 9 -19 27 23 14 34 62 15 64
-8 1 -17 2 -21 3 -5 1 -23 6 -40 10 -18 4 -41 18 -52 32 l-18 23 -17 -42 c-19
-51 -20 -64 -3 -71 16 -6 -29 -46 -53 -46 -26 0 -31 24 -15 77 8 27 15 52 15
57 0 21 -42 -31 -65 -81 -18 -38 -31 -53 -45 -53 -26 0 -25 5 10 131 17 59 29
113 28 119 -3 14 53 33 64 22 4 -4 -2 -34 -13 -66 -10 -33 -18 -61 -16 -63 2
-1 14 8 27 22 13 14 29 25 37 25 9 0 13 16 13 58 0 135 118 204 247 145z
m-577 -142 c0 -46 -23 -68 -33 -31 -3 11 -13 20 -24 20 -14 0 -24 -20 -47
-107 -22 -77 -27 -108 -18 -111 27 -9 -2 -22 -49 -22 -44 0 -66 13 -39 22 9 3
69 186 70 211 0 14 -27 7 -54 -14 -22 -18 -26 -18 -26 -4 0 9 5 25 10 36 10
17 22 19 110 19 92 0 100 -2 100 -19z m1526 -6 c-3 -11 -6 -28 -6 -37 0 -27
-13 -22 -32 12 -18 31 -45 39 -66 18 -19 -19 -14 -34 28 -83 43 -50 52 -95 26
-131 -12 -16 -28 -19 -95 -21 -87 -1 -86 -2 -75 56 8 37 20 40 28 6 8 -30 40
-49 72 -41 33 9 31 47 -5 88 -58 67 -63 96 -26 134 22 22 32 24 91 22 60 -2
65 -4 60 -23z m311 -7 c-4 -18 -17 -70 -31 -116 -18 -64 -21 -82 -10 -78 19 7
18 -3 -3 -26 -9 -10 -27 -18 -40 -18 -30 0 -30 23 2 131 14 46 24 94 22 106
-4 24 5 31 42 32 21 1 23 -2 18 -31z m441 6 c4 -27 -26 -40 -46 -20 -21 20 -8
48 20 44 14 -2 24 -11 26 -24z m-114 -56 c5 -29 4 -38 -7 -38 -15 0 -49 -107
-37 -115 5 -3 11 1 14 7 3 7 5 4 3 -7 -3 -25 -52 -44 -69 -27 -10 10 -9 26 4
75 9 37 13 66 7 73 -5 7 6 21 34 41 23 16 43 30 43 29 1 -1 4 -18 8 -38z
m-2033 -8 c10 -6 19 -18 19 -26 0 -25 -56 -74 -84 -74 -29 0 -39 -11 -30 -34
7 -18 49 -22 59 -6 8 13 25 13 25 0 0 -29 -104 -52 -128 -28 -36 36 5 128 71
158 50 23 44 22 68 10z m800 -13 c19 -28 -34 -87 -77 -87 -19 0 -24 -5 -24
-25 0 -19 5 -25 23 -25 13 0 28 5 35 12 6 6 15 8 19 4 4 -4 -3 -16 -17 -26
-28 -22 -90 -26 -108 -8 -27 27 -7 102 36 141 36 33 96 40 113 14z m269 -22
c0 -26 -11 -46 -51 -89 -28 -31 -55 -56 -59 -56 -5 0 -12 23 -17 52 l-8 52
-40 -54 -40 -55 -3 75 c-2 44 -8 78 -15 82 -16 11 11 29 38 26 15 -2 21 -13
25 -43 l5 -40 30 42 c17 23 35 41 40 39 6 -1 11 -25 13 -52 4 -63 16 -75 36
-35 13 24 14 36 6 52 -8 15 -8 24 0 34 19 22 40 6 40 -30z m1042 -40 c-20 -65
-20 -66 0 -59 17 5 18 3 9 -15 -13 -24 -58 -38 -73 -23 -8 8 -6 30 6 76 9 36
15 71 14 77 -3 14 43 29 56 18 5 -4 0 -37 -12 -74z m331 52 l-6 -22 25 23 c27
25 66 29 74 8 3 -8 -2 -38 -10 -67 -19 -64 -19 -60 0 -52 14 5 15 3 5 -15 -14
-26 -60 -40 -71 -22 -7 11 -4 32 15 103 14 51 -23 19 -56 -49 -44 -93 -88 -83
-55 13 9 25 16 59 16 74 0 23 5 28 28 31 37 5 41 2 35 -25z m-871 -2 c37 -82
-95 -201 -156 -139 -51 50 23 164 106 164 31 0 41 -5 50 -25z m238 23 c0 -2
-9 -32 -20 -67 -11 -35 -18 -66 -16 -68 2 -2 13 5 23 17 20 20 30 40 52 93 6
17 18 27 31 27 22 0 26 -22 11 -62 -4 -13 -11 -35 -15 -50 -5 -23 -4 -26 11
-21 17 7 17 5 2 -17 -22 -33 -68 -39 -76 -11 -5 21 -5 21 -30 1 -29 -23 -59
-26 -66 -7 -2 6 2 35 9 62 7 28 13 62 14 78 0 24 4 27 35 27 19 0 35 -1 35 -2z
m512 -23 c37 -82 -95 -201 -156 -139 -51 50 23 164 106 164 31 0 41 -5 50 -25z
m1529 -623 c11 -11 22 -35 26 -55 5 -32 1 -41 -31 -73 -32 -32 -41 -36 -73
-31 -106 18 -118 140 -18 182 33 14 63 7 96 -23z"/>
<path d="M2327 1550 c-15 -25 -16 -30 -3 -30 14 0 46 36 46 52 0 19 -27 5 -43
-22z"/>
<path d="M3120 1555 c-18 -34 -3 -46 21 -16 22 27 24 41 6 41 -8 0 -20 -11
-27 -25z"/>
<path d="M3886 1568 c-19 -30 -39 -106 -32 -124 15 -39 61 30 68 100 4 46 -14
58 -36 24z"/>
<path d="M4637 1568 c-23 -37 -41 -118 -30 -129 18 -18 50 27 61 84 5 29 8 55
5 59 -8 14 -22 8 -36 -14z"/>
</g>
</svg>
